<?xml version="1.0" encoding="utf-8"?>
<!-- Generator: Adobe Illustrator 15.1.0, SVG Export Plug-In . SVG Version: 6.00 Build 0)  -->
<!DOCTYPE svg PUBLIC "-//W3C//DTD SVG 1.1//EN" "http://www.w3.org/Graphics/SVG/1.1/DTD/svg11.dtd">
<svg version="1.1" id="Layer_1" xmlns="http://www.w3.org/2000/svg" xmlns:xlink="http://www.w3.org/1999/xlink" x="0px" y="0px"
	 width="500px" height="500px" viewBox="0 0 500 500" enable-background="new 0 0 500 500" xml:space="preserve">
<path fill="#FFF200" d="M250.15,0C111.97,0,0,111.97,0,250.15c0,138.098,111.97,250.067,250.15,250.067
	c138.18,0,250.149-111.97,250.149-250.15C500.218,111.97,388.248,0,250.15,0z M274.723,442.637
	c-38.251,0-73.718-11.222-103.124-30.471c-59.958-9.338-109.103-51.111-129.006-106.81c-17.447-28.013-27.604-61.022-27.604-96.489
	c0-92.639,69.131-169.06,158.576-180.773c17.774-6.225,36.859-9.583,56.763-9.583c39.808,0,76.421,13.515,105.58,36.285
	C402.746,75.52,451.4,137.771,451.4,211.489c0,1.884-0.082,3.768-0.164,5.651c4.669,15.563,7.208,31.945,7.208,48.9
	C458.362,363.512,376.126,442.637,274.723,442.637z"/>
<path fill="#50B848" d="M451.154,217.14c-2.129,62.743-39.48,116.557-92.884,142.276c-25.065,34.73-65.855,57.337-111.97,57.337
	c-10.73,0-21.132-1.229-31.125-3.604c-5.897,0.655-11.958,0.982-18.02,0.982c-8.683,0-17.201-0.655-25.474-1.966
	c29.405,19.249,64.872,30.471,103.124,30.471c101.403,0,183.64-79.125,183.64-176.678
	C458.362,249.003,455.823,232.622,451.154,217.14z"/>
<path fill="#FFF100" d="M282.422,47.589c1.639-0.082,3.276-0.164,4.915-0.164c16.873,0,33.173,2.539,48.571,7.29
	c-29.159-22.688-65.772-36.285-105.58-36.285c-19.904,0-38.989,3.44-56.763,9.583c7.781-0.983,15.727-1.638,23.835-1.638
	C228.117,26.539,257.03,34.156,282.422,47.589z"/>
<path fill="#82CA9C" d="M282.422,47.589c1.639-0.082,3.276-0.164,4.915-0.164c16.873,0,33.173,2.539,48.571,7.29
	c-29.159-22.688-65.772-36.285-105.58-36.285c-19.904,0-38.989,3.44-56.763,9.583c7.781-0.983,15.727-1.638,23.835-1.638
	C228.117,26.539,257.03,34.156,282.422,47.589z"/>
<path fill="#F7941E" d="M180.609,86.905c27.521-23.59,62.988-38.251,101.812-39.398C257.03,34.074,228.117,26.457,197.4,26.457
	c-8.109,0-16.054,0.573-23.835,1.638C84.121,39.808,14.989,116.229,14.989,208.868c0,35.385,10.157,68.476,27.604,96.407
	c-6.143-17.283-9.583-35.794-9.583-55.207C33.091,165.128,97.799,95.178,180.609,86.905z"/>
<path fill="#034EA2" d="M215.093,413.149c-61.268-14.171-106.973-68.968-106.973-134.577c0-22.771,5.57-44.148,15.235-63.07
	c0-1.392-0.082-2.703-0.082-4.095c0-49.8,22.279-94.441,57.336-124.501C97.799,95.178,33.091,165.128,33.091,250.15
	c0,19.412,3.358,37.924,9.583,55.206c19.903,55.698,69.049,97.472,129.006,106.81c8.273,1.311,16.792,1.966,25.474,1.966
	C203.134,414.132,209.196,413.722,215.093,413.149z"/>
<path fill="#FFF100" d="M391.034,129.334c28.421,22.443,49.718,52.914,60.12,87.806c0.082-1.883,0.164-3.767,0.164-5.651
	c0-73.637-48.572-135.969-115.491-156.692C360.481,73.964,379.729,99.684,391.034,129.334z"/>
<path fill="#A1D078" d="M391.034,129.334c28.421,22.443,49.718,52.914,60.12,87.806c0.082-1.883,0.164-3.767,0.164-5.651
	c0-73.637-48.572-135.969-115.491-156.692C360.481,73.964,379.729,99.684,391.034,129.334z"/>
<path fill="#54B948" d="M391.034,129.334c7.207,19.003,11.221,39.644,11.221,61.187c0,6.389-0.41,12.614-1.065,18.838
	c4.096,12.86,6.39,26.539,6.39,40.792c0,37.678-15.727,71.67-40.872,95.833c-2.622,4.669-5.488,9.092-8.52,13.352
	c53.486-25.72,90.755-79.534,92.886-142.276C440.752,182.248,419.455,151.777,391.034,129.334z"/>
<path fill="#009175" d="M391.034,129.334c7.207,19.003,11.221,39.644,11.221,61.187c0,6.389-0.41,12.614-1.065,18.838
	c4.096,12.86,6.39,26.539,6.39,40.792c0,37.678-15.727,71.67-40.872,95.833c-2.622,4.669-5.488,9.092-8.52,13.352
	c53.486-25.72,90.755-79.534,92.886-142.276C440.752,182.248,419.455,151.777,391.034,129.334z"/>
<path fill="#FFF100" d="M282.422,47.589c25.228,13.351,46.934,32.436,63.479,55.534c16.382,6.635,31.617,15.563,45.214,26.211
	c-11.303-29.65-30.552-55.37-55.207-74.537c-15.316-4.75-31.616-7.29-48.571-7.29C285.698,47.425,284.061,47.507,282.422,47.589z"/>
<path fill="#00AEEF" d="M282.422,47.589c25.228,13.351,46.934,32.436,63.479,55.534c16.382,6.635,31.617,15.563,45.214,26.211
	c-11.303-29.65-30.552-55.37-55.207-74.537c-15.316-4.75-31.616-7.29-48.571-7.29C285.698,47.425,284.061,47.507,282.422,47.589z"/>
<path fill="#00B49D" d="M282.422,47.589c25.228,13.351,46.934,32.436,63.479,55.534c16.382,6.635,31.617,15.563,45.214,26.211
	c-11.303-29.65-30.552-55.37-55.207-74.537c-15.316-4.75-31.616-7.29-48.571-7.29C285.698,47.425,284.061,47.507,282.422,47.589z"/>
<path fill="#54B948" d="M401.272,209.359c0.655-6.225,1.064-12.45,1.064-18.838c0-21.542-4.014-42.183-11.222-61.187
	c-13.597-10.73-28.75-19.576-45.214-26.211c12.369,17.283,21.788,36.859,27.521,57.91
	C385.791,174.793,395.456,191.257,401.272,209.359z"/>
<path fill="#00AEEF" d="M401.272,209.359c0.655-6.225,1.064-12.45,1.064-18.838c0-21.542-4.014-42.183-11.222-61.187
	c-13.597-10.73-28.75-19.576-45.214-26.211c12.369,17.283,21.788,36.859,27.521,57.91
	C385.791,174.793,395.456,191.257,401.272,209.359z"/>
<path fill="#A3238E" d="M401.272,209.359c0.655-6.225,1.064-12.45,1.064-18.838c0-21.542-4.014-42.183-11.222-61.187
	c-13.597-10.73-28.75-19.576-45.214-26.211c12.369,17.283,21.788,36.859,27.521,57.91
	C385.791,174.793,395.456,191.257,401.272,209.359z"/>
<path fill="#F68925" d="M295.282,118.768c30.797,4.75,58.073,20.149,78.059,42.183c-5.733-21.051-15.153-40.627-27.521-57.91
	c-16.465-23.098-38.171-42.183-63.479-55.534c-38.826,1.146-74.292,15.727-101.813,39.398c5.406-0.573,10.894-0.819,16.464-0.819
	C233.85,86.086,267.924,98.291,295.282,118.768z"/>
<path fill="#FAA61A" d="M295.282,118.768c30.797,4.75,58.073,20.149,78.059,42.183c-5.733-21.051-15.153-40.627-27.521-57.91
	c-16.465-23.098-38.171-42.183-63.479-55.534c-38.826,1.146-74.292,15.727-101.813,39.398c5.406-0.573,10.894-0.819,16.464-0.819
	C233.85,86.086,267.924,98.291,295.282,118.768z"/>
<path fill="#034EA2" d="M178.889,158.002c24.163-25.146,58.156-40.873,95.833-40.873c6.963,0,13.843,0.573,20.56,1.556
	c-27.358-20.477-61.351-32.682-98.209-32.682c-5.57,0-11.058,0.246-16.464,0.819c-35.057,30.061-57.336,74.701-57.336,124.502
	c0,1.393,0.082,2.703,0.082,4.095C135.887,191.339,155.217,171.271,178.889,158.002z"/>
<path fill="#0086CC" d="M178.889,158.002c24.163-25.146,58.156-40.873,95.833-40.873c6.963,0,13.843,0.573,20.56,1.556
	c-27.358-20.477-61.351-32.682-98.209-32.682c-5.57,0-11.058,0.246-16.464,0.819c-35.057,30.061-57.336,74.701-57.336,124.502
	c0,1.393,0.082,2.703,0.082,4.095C135.887,191.339,155.217,171.271,178.889,158.002z"/>
<path fill="#ED1C24" d="M274.723,383.088c-71.506,0-129.826-56.517-132.774-127.286c0-0.41,0-0.737,0-1.146
	c-0.082-1.475-0.082-3.031-0.082-4.505l0,0l0,0c0-1.885,0.082-3.769,0.164-5.652c1.393-33.501,15.235-63.807,36.941-86.414
	c-23.672,13.269-43.002,33.255-55.453,57.5c-9.747,18.921-15.235,40.299-15.235,63.07c0,65.527,45.705,120.406,106.973,134.495
	c9.993,2.293,20.396,3.604,31.125,3.604c46.115,0,86.906-22.606,111.97-57.337c3.112-4.259,5.979-8.764,8.519-13.351
	C342.871,368.918,310.435,383.088,274.723,383.088z"/>
<path d="M295.282,118.768c-6.717-1.065-13.597-1.556-20.56-1.556c-37.678,0-71.67,15.726-95.833,40.873
	c-21.706,22.607-35.548,52.913-36.941,86.414c2.949-57.91,50.865-104.024,109.513-104.024c60.53,0,109.676,49.063,109.676,109.677
	c0,60.53-49.063,109.676-109.676,109.676c-58.647,0-106.564-46.033-109.513-104.024c2.949,70.77,61.268,127.286,132.774,127.286
	c35.794,0,68.148-14.17,92.065-37.104c25.146-24.163,40.873-58.155,40.873-95.833c0-14.252-2.293-27.932-6.389-40.792
	c-5.816-18.102-15.481-34.565-27.932-48.408C353.355,138.917,326.079,123.519,295.282,118.768z"/>
<path d="M141.785,250.15c0,1.474,0.082,3.03,0.082,4.505C141.785,253.181,141.785,251.624,141.785,250.15L141.785,250.15z"/>
<path fill="#FFFFFF" d="M251.379,359.744c60.53,0,109.676-49.063,109.676-109.676c0-60.531-49.063-109.676-109.676-109.676
	c-58.647,0-106.564,46.033-109.512,104.024c-0.082,1.884-0.164,3.768-0.164,5.651l0,0c0,1.474,0.082,3.031,0.082,4.505
	c0,0.409,0,0.737,0,1.146C144.815,313.711,192.731,359.744,251.379,359.744z"/>
</svg>
